<svg width="23" height="23" viewBox="0 0 23 23" fill="none" xmlns="http://www.w3.org/2000/svg">
<path d="M7.49293 20.1349C15.6302 20.1349 20.08 13.3934 20.08 7.54775C20.08 7.35629 20.0761 7.16561 20.0675 6.97599C20.9312 6.35148 21.6819 5.57216 22.2743 4.68511C21.4816 5.03759 20.6285 5.27455 19.7338 5.38175C20.6471 4.83385 21.3483 3.96751 21.679 2.93474C20.8243 3.4415 19.8776 3.80966 18.8699 4.00852C18.0627 3.14863 16.9132 2.61089 15.6406 2.61089C13.1976 2.61089 11.2164 4.59202 11.2164 7.03414C11.2164 7.38147 11.2553 7.71905 11.3311 8.04291C7.65433 7.8579 4.39385 6.09764 2.21216 3.4208C1.83239 4.07445 1.61323 4.83399 1.61323 5.64442C1.61323 7.17906 2.39426 8.53423 3.58183 9.32674C2.85605 9.30445 2.17431 9.1052 1.57828 8.77357C1.57762 8.79216 1.57762 8.81022 1.57762 8.83C1.57762 10.9725 3.1025 12.7614 5.12702 13.1668C4.75516 13.2679 4.36392 13.3224 3.96041 13.3224C3.67585 13.3224 3.39841 13.2944 3.12888 13.2426C3.69207 15.0003 5.32534 16.2794 7.26164 16.3153C5.74744 17.5021 3.84002 18.209 1.76698 18.209C1.41042 18.209 1.05795 18.1885 0.71167 18.1477C2.66959 19.4026 4.99449 20.135 7.49306 20.135" fill="white" fill-opacity="0.91"/>
</svg>
